<mxfile host="Electron" modified="2023-10-04T06:10:00.588Z" agent="Mozilla/5.0 (Macintosh; Intel Mac OS X 10_15_7) AppleWebKit/537.36 (KHTML, like Gecko) draw.io/22.0.0 Chrome/114.0.5735.289 Electron/25.8.3 Safari/537.36" etag="oLeT336hpETtacxL-W8K" version="22.0.0" type="device">
  <diagram name="Page-1" id="RcsFwqiE_mqMil7ZwmxQ">
    <mxGraphModel dx="1010" dy="732" grid="1" gridSize="10" guides="1" tooltips="1" connect="1" arrows="1" fold="1" page="1" pageScale="1" pageWidth="827" pageHeight="1169" background="none" math="0" shadow="1">
      <root>
        <mxCell id="0" />
        <mxCell id="1" parent="0" />
        <mxCell id="6tRhkselshd9M_Zx6MNm-24" value="Consumer Security Server" style="shape=umlLifeline;perimeter=lifelinePerimeter;whiteSpace=wrap;html=1;container=1;dropTarget=0;collapsible=0;recursiveResize=0;outlineConnect=0;portConstraint=eastwest;newEdgeStyle={&quot;curved&quot;:0,&quot;rounded&quot;:0};fillColor=#008a00;fontColor=#ffffff;strokeColor=#005700;strokeWidth=2;" vertex="1" parent="1">
          <mxGeometry x="110" y="40" width="100" height="560" as="geometry" />
        </mxCell>
        <mxCell id="6tRhkselshd9M_Zx6MNm-26" value="" style="html=1;points=[[0,0,0,0,5],[0,1,0,0,-5],[1,0,0,0,5],[1,1,0,0,-5]];perimeter=orthogonalPerimeter;outlineConnect=0;targetShapes=umlLifeline;portConstraint=eastwest;newEdgeStyle={&quot;curved&quot;:0,&quot;rounded&quot;:0};fillColor=#008a00;fontColor=#ffffff;strokeColor=#005700;" vertex="1" parent="6tRhkselshd9M_Zx6MNm-24">
          <mxGeometry x="45" y="80" width="10" height="450" as="geometry" />
        </mxCell>
        <mxCell id="6tRhkselshd9M_Zx6MNm-27" value="Request" style="html=1;verticalAlign=bottom;startArrow=circle;startFill=1;endArrow=open;startSize=6;endSize=8;curved=0;rounded=0;arcSize=20;labelBackgroundColor=none;strokeWidth=2;" edge="1" parent="6tRhkselshd9M_Zx6MNm-24" target="6tRhkselshd9M_Zx6MNm-26">
          <mxGeometry width="80" relative="1" as="geometry">
            <mxPoint x="-40" y="120" as="sourcePoint" />
            <mxPoint x="40" y="120" as="targetPoint" />
          </mxGeometry>
        </mxCell>
        <mxCell id="6tRhkselshd9M_Zx6MNm-25" value="Producer Security Server" style="shape=umlLifeline;perimeter=lifelinePerimeter;whiteSpace=wrap;html=1;container=1;dropTarget=0;collapsible=0;recursiveResize=0;outlineConnect=0;portConstraint=eastwest;newEdgeStyle={&quot;curved&quot;:0,&quot;rounded&quot;:0};fillColor=#1ba1e2;fontColor=#ffffff;strokeColor=#006EAF;strokeWidth=2;" vertex="1" parent="1">
          <mxGeometry x="390" y="40" width="100" height="560" as="geometry" />
        </mxCell>
        <mxCell id="6tRhkselshd9M_Zx6MNm-34" value="" style="html=1;points=[[0,0,0,0,5],[0,1,0,0,-5],[1,0,0,0,5],[1,1,0,0,-5]];perimeter=orthogonalPerimeter;outlineConnect=0;targetShapes=umlLifeline;portConstraint=eastwest;newEdgeStyle={&quot;curved&quot;:0,&quot;rounded&quot;:0};fillColor=#1ba1e2;fontColor=#ffffff;strokeColor=#006EAF;" vertex="1" parent="6tRhkselshd9M_Zx6MNm-25">
          <mxGeometry x="45" y="190" width="10" height="80" as="geometry" />
        </mxCell>
        <mxCell id="6tRhkselshd9M_Zx6MNm-41" value="" style="html=1;points=[[0,0,0,0,5],[0,1,0,0,-5],[1,0,0,0,5],[1,1,0,0,-5]];perimeter=orthogonalPerimeter;outlineConnect=0;targetShapes=umlLifeline;portConstraint=eastwest;newEdgeStyle={&quot;curved&quot;:0,&quot;rounded&quot;:0};fillColor=#1ba1e2;fontColor=#ffffff;strokeColor=#006EAF;" vertex="1" parent="6tRhkselshd9M_Zx6MNm-25">
          <mxGeometry x="45" y="350" width="10" height="30" as="geometry" />
        </mxCell>
        <mxCell id="6tRhkselshd9M_Zx6MNm-42" value="" style="html=1;points=[[0,0,0,0,5],[0,1,0,0,-5],[1,0,0,0,5],[1,1,0,0,-5]];perimeter=orthogonalPerimeter;outlineConnect=0;targetShapes=umlLifeline;portConstraint=eastwest;newEdgeStyle={&quot;curved&quot;:0,&quot;rounded&quot;:0};fillColor=#1ba1e2;fontColor=#ffffff;strokeColor=#006EAF;" vertex="1" parent="6tRhkselshd9M_Zx6MNm-25">
          <mxGeometry x="45" y="430" width="10" height="90" as="geometry" />
        </mxCell>
        <mxCell id="6tRhkselshd9M_Zx6MNm-43" value="send System message" style="html=1;verticalAlign=bottom;endArrow=block;curved=0;rounded=0;labelBackgroundColor=none;strokeWidth=2;" edge="1" parent="6tRhkselshd9M_Zx6MNm-25" target="6tRhkselshd9M_Zx6MNm-42">
          <mxGeometry width="80" relative="1" as="geometry">
            <mxPoint x="-220" y="440" as="sourcePoint" />
            <mxPoint x="-140" y="440" as="targetPoint" />
          </mxGeometry>
        </mxCell>
        <mxCell id="6tRhkselshd9M_Zx6MNm-29" value="process message" style="html=1;align=left;spacingLeft=2;endArrow=block;rounded=0;edgeStyle=orthogonalEdgeStyle;curved=0;rounded=0;labelBackgroundColor=none;strokeWidth=2;" edge="1" parent="1">
          <mxGeometry relative="1" as="geometry">
            <mxPoint x="165" y="170" as="sourcePoint" />
            <Array as="points">
              <mxPoint x="195" y="200" />
            </Array>
            <mxPoint x="165" y="200" as="targetPoint" />
          </mxGeometry>
        </mxCell>
        <mxCell id="6tRhkselshd9M_Zx6MNm-36" value="init handshake" style="html=1;verticalAlign=bottom;endArrow=block;curved=0;rounded=0;labelBackgroundColor=none;strokeWidth=2;" edge="1" parent="1">
          <mxGeometry relative="1" as="geometry">
            <mxPoint x="165" y="250" as="sourcePoint" />
            <mxPoint x="430" y="250" as="targetPoint" />
          </mxGeometry>
        </mxCell>
        <mxCell id="6tRhkselshd9M_Zx6MNm-37" value="server certificate chain" style="html=1;verticalAlign=bottom;endArrow=open;dashed=1;endSize=8;curved=0;rounded=0;exitX=0;exitY=1;exitDx=0;exitDy=-5;labelBackgroundColor=none;strokeWidth=2;" edge="1" parent="1" target="6tRhkselshd9M_Zx6MNm-24">
          <mxGeometry relative="1" as="geometry">
            <mxPoint x="361" y="300" as="targetPoint" />
            <mxPoint x="431" y="300" as="sourcePoint" />
          </mxGeometry>
        </mxCell>
        <mxCell id="6tRhkselshd9M_Zx6MNm-38" value="get OCSP response" style="html=1;align=left;spacingLeft=2;endArrow=block;rounded=0;edgeStyle=orthogonalEdgeStyle;curved=0;rounded=0;labelBackgroundColor=none;strokeWidth=2;" edge="1" parent="1">
          <mxGeometry relative="1" as="geometry">
            <mxPoint x="167" y="340" as="sourcePoint" />
            <Array as="points">
              <mxPoint x="197" y="370" />
            </Array>
            <mxPoint x="167" y="370" as="targetPoint" />
            <mxPoint as="offset" />
          </mxGeometry>
        </mxCell>
        <mxCell id="6tRhkselshd9M_Zx6MNm-39" value="verify server certificate chain" style="html=1;align=left;spacingLeft=2;endArrow=block;rounded=0;edgeStyle=orthogonalEdgeStyle;curved=0;rounded=0;labelBackgroundColor=none;strokeWidth=2;" edge="1" parent="1">
          <mxGeometry relative="1" as="geometry">
            <mxPoint x="166" y="420" as="sourcePoint" />
            <Array as="points">
              <mxPoint x="196" y="450" />
            </Array>
            <mxPoint x="166" y="450" as="targetPoint" />
          </mxGeometry>
        </mxCell>
        <mxCell id="6tRhkselshd9M_Zx6MNm-40" value="download OCSP Response (if not cached)&amp;nbsp;" style="html=1;verticalAlign=bottom;endArrow=block;curved=0;rounded=0;labelBackgroundColor=none;strokeWidth=2;" edge="1" parent="1" target="6tRhkselshd9M_Zx6MNm-41">
          <mxGeometry width="80" relative="1" as="geometry">
            <mxPoint x="170" y="400" as="sourcePoint" />
            <mxPoint x="250" y="400" as="targetPoint" />
          </mxGeometry>
        </mxCell>
        <mxCell id="6tRhkselshd9M_Zx6MNm-44" value="verify client certificate chain" style="html=1;align=left;spacingLeft=2;endArrow=block;rounded=0;edgeStyle=orthogonalEdgeStyle;curved=0;rounded=0;labelBackgroundColor=none;strokeWidth=2;" edge="1" parent="1">
          <mxGeometry relative="1" as="geometry">
            <mxPoint x="443" y="490" as="sourcePoint" />
            <Array as="points">
              <mxPoint x="473" y="520" />
            </Array>
            <mxPoint x="443" y="520" as="targetPoint" />
          </mxGeometry>
        </mxCell>
        <mxCell id="6tRhkselshd9M_Zx6MNm-48" value="continue" style="html=1;verticalAlign=bottom;startArrow=circle;startFill=1;endArrow=none;startSize=6;endSize=8;curved=0;rounded=0;endFill=0;labelBackgroundColor=none;strokeWidth=2;" edge="1" parent="1">
          <mxGeometry width="80" relative="1" as="geometry">
            <mxPoint x="570" y="550" as="sourcePoint" />
            <mxPoint x="446" y="550" as="targetPoint" />
          </mxGeometry>
        </mxCell>
        <mxCell id="6tRhkselshd9M_Zx6MNm-49" value="init connection" style="html=1;align=left;spacingLeft=2;endArrow=block;rounded=0;edgeStyle=orthogonalEdgeStyle;curved=0;rounded=0;labelBackgroundColor=none;strokeWidth=2;" edge="1" parent="1">
          <mxGeometry relative="1" as="geometry">
            <mxPoint x="165" y="210" as="sourcePoint" />
            <Array as="points">
              <mxPoint x="195" y="240" />
            </Array>
            <mxPoint x="165" y="240" as="targetPoint" />
          </mxGeometry>
        </mxCell>
      </root>
    </mxGraphModel>
  </diagram>
</mxfile>
